# xmcd CD database file
#
# Track frame offsets:
#	150
#	20770
#	48976
#	76251
#	101483
#	118862
#	150757
#	174024
#	196064
#	216488
#	244735
#
# Disc length: 3527 seconds
#
# Revision: 0
# Processed by: cddbd v1.4PL0 Copyright (c) Steve Scherf et al.
# Submitted via: CDex 1.51
#
DISCID=820dc50b
DTITLE=Black Chantilly - Segundo Soplo
DYEAR=2001
DGENRE=Salsa
TTITLE0=Freedom Latin Jazz Dance
TTITLE1=Cajon Y Conga
TTITLE2=Dos Notas
TTITLE3=Segundo Soplo
TTITLE4=El Mambo Del Caribe
TTITLE5=Chanson Pour L'Auvergnat
TTITLE6=El Cha Cha Cha De La Banda
TTITLE7=Imperativos Irregulares
TTITLE8=Sous Le Ciel De Paris
TTITLE9=Como Un Domingo
TTITLE10=Las Vigas
EXTD=YEAR: 2001
EXTT0=
EXTT1=
EXTT2=
EXTT3=
EXTT4=
EXTT5=
EXTT6=
EXTT7=
EXTT8=
EXTT9=
EXTT10=
PLAYORDER=
